<?xml version="1.0" encoding="UTF-8" standalone="no"?>
<svg viewBox="-0.5 -0.5 691.0 751.0" preserveAspectRatio="xMidYMin meet" data-height="751.0" data-width="691.0" style="max-height:751.0px; max-width:691.0px; transform:translate(0, 0)" xmlns="http://www.w3.org/2000/svg">

<style type="text/css">

g rect {
    fill:#ffffff;
    stroke-width:1.0;
    stroke:#000001;
    fill-opacity:1;
}

.cx-c {
    font-size:11.0px;
    font-family:monospace;
    pointer-events:none;
    font-weight:bold;
    fill:#000002;
    text-anchor:start;
}

.cx-a {
    font-size:14.0px;
    font-family:monospace;
    text-anchor:middle;
    pointer-events:none;
    fill:#000003;
}

.cx-b {
    fill:#000004;
}
    
</style>
<g id="cx-0-15"><rect shape-rendering="crispEdge"  x="450.0" y="0.0" width="30.0" height="30.0" /><text dy="1em"  class="cx-c" x="452.0" y="2.0" >1</text><text dy=".28em"  class="cx-a" x="465.0" y="15.0"></text></g><g id="cx-1-8"><rect shape-rendering="crispEdge"  x="240.0" y="30.0" width="30.0" height="30.0" /><text dy="1em"  class="cx-c" x="242.0" y="32.0" >2</text><text dy=".28em"  class="cx-a" x="255.0" y="45.0"></text></g><g id="cx-1-9"><rect shape-rendering="crispEdge"  x="270.0" y="30.0" width="30.0" height="30.0" /><text dy=".28em"  class="cx-a" x="285.0" y="45.0"></text></g><g id="cx-1-10"><rect shape-rendering="crispEdge"  x="300.0" y="30.0" width="30.0" height="30.0" /><text dy=".28em"  class="cx-a" x="315.0" y="45.0"></text></g><g id="cx-1-11"><rect shape-rendering="crispEdge"  x="330.0" y="30.0" width="30.0" height="30.0" /><text dy=".28em"  class="cx-a" x="345.0" y="45.0"></text></g><g id="cx-1-12"><rect shape-rendering="crispEdge"  x="360.0" y="30.0" width="30.0" height="30.0" /><text dy=".28em"  class="cx-a" x="375.0" y="45.0"></text></g><g id="cx-1-13"><rect shape-rendering="crispEdge"  x="390.0" y="30.0" width="30.0" height="30.0" /><text dy=".28em"  class="cx-a" x="405.0" y="45.0"></text></g><g id="cx-1-14"><rect shape-rendering="crispEdge"  x="420.0" y="30.0" width="30.0" height="30.0" /><text dy=".28em"  class="cx-a" x="435.0" y="45.0"></text></g><g id="cx-1-15"><rect shape-rendering="crispEdge"  x="450.0" y="30.0" width="30.0" height="30.0" /><text dy=".28em"  class="cx-a" x="465.0" y="45.0"></text></g><g id="cx-1-18"><rect shape-rendering="crispEdge"  x="540.0" y="30.0" width="30.0" height="30.0" /><text dy="1em"  class="cx-c" x="542.0" y="32.0" >3</text><text dy=".28em"  class="cx-a" x="555.0" y="45.0"></text></g><g id="cx-2-15"><rect shape-rendering="crispEdge"  x="450.0" y="60.0" width="30.0" height="30.0" /><text dy=".28em"  class="cx-a" x="465.0" y="75.0"></text></g><g id="cx-2-18"><rect shape-rendering="crispEdge"  x="540.0" y="60.0" width="30.0" height="30.0" /><text dy=".28em"  class="cx-a" x="555.0" y="75.0"></text></g><g id="cx-3-15"><rect shape-rendering="crispEdge"  x="450.0" y="90.0" width="30.0" height="30.0" /><text dy=".28em"  class="cx-a" x="465.0" y="105.0"></text></g><g id="cx-3-18"><rect shape-rendering="crispEdge"  x="540.0" y="90.0" width="30.0" height="30.0" /><text dy=".28em"  class="cx-a" x="555.0" y="105.0"></text></g><g id="cx-4-15"><rect shape-rendering="crispEdge"  x="450.0" y="120.0" width="30.0" height="30.0" /><text dy=".28em"  class="cx-a" x="465.0" y="135.0"></text></g><g id="cx-4-18"><rect shape-rendering="crispEdge"  x="540.0" y="120.0" width="30.0" height="30.0" /><text dy=".28em"  class="cx-a" x="555.0" y="135.0"></text></g><g id="cx-4-20"><rect shape-rendering="crispEdge"  x="600.0" y="120.0" width="30.0" height="30.0" /><text dy="1em"  class="cx-c" x="602.0" y="122.0" >4</text><text dy=".28em"  class="cx-a" x="615.0" y="135.0"></text></g><g id="cx-5-13"><rect shape-rendering="crispEdge"  x="390.0" y="150.0" width="30.0" height="30.0" /><text dy="1em"  class="cx-c" x="392.0" y="152.0" >5</text><text dy=".28em"  class="cx-a" x="405.0" y="165.0"></text></g><g id="cx-5-14"><rect shape-rendering="crispEdge"  x="420.0" y="150.0" width="30.0" height="30.0" /><text dy=".28em"  class="cx-a" x="435.0" y="165.0"></text></g><g id="cx-5-15"><rect shape-rendering="crispEdge"  x="450.0" y="150.0" width="30.0" height="30.0" /><text dy=".28em"  class="cx-a" x="465.0" y="165.0"></text></g><g id="cx-5-16"><rect shape-rendering="crispEdge"  x="480.0" y="150.0" width="30.0" height="30.0" /><text dy=".28em"  class="cx-a" x="495.0" y="165.0"></text></g><g id="cx-5-17"><rect shape-rendering="crispEdge"  x="510.0" y="150.0" width="30.0" height="30.0" /><text dy=".28em"  class="cx-a" x="525.0" y="165.0"></text></g><g id="cx-5-18"><rect shape-rendering="crispEdge"  x="540.0" y="150.0" width="30.0" height="30.0" /><text dy=".28em"  class="cx-a" x="555.0" y="165.0"></text></g><g id="cx-5-19"><rect shape-rendering="crispEdge"  x="570.0" y="150.0" width="30.0" height="30.0" /><text dy=".28em"  class="cx-a" x="585.0" y="165.0"></text></g><g id="cx-5-20"><rect shape-rendering="crispEdge"  x="600.0" y="150.0" width="30.0" height="30.0" /><text dy=".28em"  class="cx-a" x="615.0" y="165.0"></text></g><g id="cx-6-12"><rect shape-rendering="crispEdge"  x="360.0" y="180.0" width="30.0" height="30.0" /><text dy="1em"  class="cx-c" x="362.0" y="182.0" >6</text><text dy=".28em"  class="cx-a" x="375.0" y="195.0"></text></g><g id="cx-6-18"><rect shape-rendering="crispEdge"  x="540.0" y="180.0" width="30.0" height="30.0" /><text dy=".28em"  class="cx-a" x="555.0" y="195.0"></text></g><g id="cx-6-20"><rect shape-rendering="crispEdge"  x="600.0" y="180.0" width="30.0" height="30.0" /><text dy=".28em"  class="cx-a" x="615.0" y="195.0"></text></g><g id="cx-7-12"><rect shape-rendering="crispEdge"  x="360.0" y="210.0" width="30.0" height="30.0" /><text dy="1em"  class="cx-c" x="362.0" y="212.0" >7</text><text dy=".28em"  class="cx-a" x="375.0" y="225.0"></text></g><g id="cx-7-13"><rect shape-rendering="crispEdge"  x="390.0" y="210.0" width="30.0" height="30.0" /><text dy=".28em"  class="cx-a" x="405.0" y="225.0"></text></g><g id="cx-7-14"><rect shape-rendering="crispEdge"  x="420.0" y="210.0" width="30.0" height="30.0" /><text dy=".28em"  class="cx-a" x="435.0" y="225.0"></text></g><g id="cx-7-15"><rect shape-rendering="crispEdge"  x="450.0" y="210.0" width="30.0" height="30.0" /><text dy=".28em"  class="cx-a" x="465.0" y="225.0"></text></g><g id="cx-7-16"><rect shape-rendering="crispEdge"  x="480.0" y="210.0" width="30.0" height="30.0" /><text dy=".28em"  class="cx-a" x="495.0" y="225.0"></text></g><g id="cx-7-17"><rect shape-rendering="crispEdge"  x="510.0" y="210.0" width="30.0" height="30.0" /><text dy=".28em"  class="cx-a" x="525.0" y="225.0"></text></g><g id="cx-7-18"><rect shape-rendering="crispEdge"  x="540.0" y="210.0" width="30.0" height="30.0" /><text dy=".28em"  class="cx-a" x="555.0" y="225.0"></text></g><g id="cx-7-20"><rect shape-rendering="crispEdge"  x="600.0" y="210.0" width="30.0" height="30.0" /><text dy=".28em"  class="cx-a" x="615.0" y="225.0"></text></g><g id="cx-8-12"><rect shape-rendering="crispEdge"  x="360.0" y="240.0" width="30.0" height="30.0" /><text dy=".28em"  class="cx-a" x="375.0" y="255.0"></text></g><g id="cx-8-20"><rect shape-rendering="crispEdge"  x="600.0" y="240.0" width="30.0" height="30.0" /><text dy=".28em"  class="cx-a" x="615.0" y="255.0"></text></g><g id="cx-9-12"><rect shape-rendering="crispEdge"  x="360.0" y="270.0" width="30.0" height="30.0" /><text dy=".28em"  class="cx-a" x="375.0" y="285.0"></text></g><g id="cx-9-20"><rect shape-rendering="crispEdge"  x="600.0" y="270.0" width="30.0" height="30.0" /><text dy=".28em"  class="cx-a" x="615.0" y="285.0"></text></g><g id="cx-9-22"><rect shape-rendering="crispEdge"  x="660.0" y="270.0" width="30.0" height="30.0" /><text dy="1em"  class="cx-c" x="662.0" y="272.0" >8</text><text dy=".28em"  class="cx-a" x="675.0" y="285.0"></text></g><g id="cx-10-11"><rect shape-rendering="crispEdge"  x="330.0" y="300.0" width="30.0" height="30.0" /><text dy="1em"  class="cx-c" x="332.0" y="302.0" >9</text><text dy=".28em"  class="cx-a" x="345.0" y="315.0"></text></g><g id="cx-10-12"><rect shape-rendering="crispEdge"  x="360.0" y="300.0" width="30.0" height="30.0" /><text dy=".28em"  class="cx-a" x="375.0" y="315.0"></text></g><g id="cx-10-13"><rect shape-rendering="crispEdge"  x="390.0" y="300.0" width="30.0" height="30.0" /><text dy=".28em"  class="cx-a" x="405.0" y="315.0"></text></g><g id="cx-10-14"><rect shape-rendering="crispEdge"  x="420.0" y="300.0" width="30.0" height="30.0" /><text dy=".28em"  class="cx-a" x="435.0" y="315.0"></text></g><g id="cx-10-15"><rect shape-rendering="crispEdge"  x="450.0" y="300.0" width="30.0" height="30.0" /><text dy=".28em"  class="cx-a" x="465.0" y="315.0"></text></g><g id="cx-10-16"><rect shape-rendering="crispEdge"  x="480.0" y="300.0" width="30.0" height="30.0" /><text dy=".28em"  class="cx-a" x="495.0" y="315.0"></text></g><g id="cx-10-17"><rect shape-rendering="crispEdge"  x="510.0" y="300.0" width="30.0" height="30.0" /><text dy=".28em"  class="cx-a" x="525.0" y="315.0"></text></g><g id="cx-10-18"><rect shape-rendering="crispEdge"  x="540.0" y="300.0" width="30.0" height="30.0" /><text dy=".28em"  class="cx-a" x="555.0" y="315.0"></text></g><g id="cx-10-19"><rect shape-rendering="crispEdge"  x="570.0" y="300.0" width="30.0" height="30.0" /><text dy=".28em"  class="cx-a" x="585.0" y="315.0"></text></g><g id="cx-10-20"><rect shape-rendering="crispEdge"  x="600.0" y="300.0" width="30.0" height="30.0" /><text dy=".28em"  class="cx-a" x="615.0" y="315.0"></text></g><g id="cx-10-21"><rect shape-rendering="crispEdge"  x="630.0" y="300.0" width="30.0" height="30.0" /><text dy=".28em"  class="cx-a" x="645.0" y="315.0"></text></g><g id="cx-10-22"><rect shape-rendering="crispEdge"  x="660.0" y="300.0" width="30.0" height="30.0" /><text dy=".28em"  class="cx-a" x="675.0" y="315.0"></text></g><g id="cx-11-12"><rect shape-rendering="crispEdge"  x="360.0" y="330.0" width="30.0" height="30.0" /><text dy=".28em"  class="cx-a" x="375.0" y="345.0"></text></g><g id="cx-11-20"><rect shape-rendering="crispEdge"  x="600.0" y="330.0" width="30.0" height="30.0" /><text dy=".28em"  class="cx-a" x="615.0" y="345.0"></text></g><g id="cx-11-22"><rect shape-rendering="crispEdge"  x="660.0" y="330.0" width="30.0" height="30.0" /><text dy=".28em"  class="cx-a" x="675.0" y="345.0"></text></g><g id="cx-12-12"><rect shape-rendering="crispEdge"  x="360.0" y="360.0" width="30.0" height="30.0" /><text dy=".28em"  class="cx-a" x="375.0" y="375.0"></text></g><g id="cx-12-20"><rect shape-rendering="crispEdge"  x="600.0" y="360.0" width="30.0" height="30.0" /><text dy=".28em"  class="cx-a" x="615.0" y="375.0"></text></g><g id="cx-12-22"><rect shape-rendering="crispEdge"  x="660.0" y="360.0" width="30.0" height="30.0" /><text dy=".28em"  class="cx-a" x="675.0" y="375.0"></text></g><g id="cx-13-11"><rect shape-rendering="crispEdge"  x="330.0" y="390.0" width="30.0" height="30.0" /><text dy="1em"  class="cx-c" x="332.0" y="392.0" >10</text><text dy=".28em"  class="cx-a" x="345.0" y="405.0"></text></g><g id="cx-13-12"><rect shape-rendering="crispEdge"  x="360.0" y="390.0" width="30.0" height="30.0" /><text dy=".28em"  class="cx-a" x="375.0" y="405.0"></text></g><g id="cx-13-13"><rect shape-rendering="crispEdge"  x="390.0" y="390.0" width="30.0" height="30.0" /><text dy=".28em"  class="cx-a" x="405.0" y="405.0"></text></g><g id="cx-13-14"><rect shape-rendering="crispEdge"  x="420.0" y="390.0" width="30.0" height="30.0" /><text dy=".28em"  class="cx-a" x="435.0" y="405.0"></text></g><g id="cx-13-15"><rect shape-rendering="crispEdge"  x="450.0" y="390.0" width="30.0" height="30.0" /><text dy=".28em"  class="cx-a" x="465.0" y="405.0"></text></g><g id="cx-13-16"><rect shape-rendering="crispEdge"  x="480.0" y="390.0" width="30.0" height="30.0" /><text dy=".28em"  class="cx-a" x="495.0" y="405.0"></text></g><g id="cx-13-17"><rect shape-rendering="crispEdge"  x="510.0" y="390.0" width="30.0" height="30.0" /><text dy=".28em"  class="cx-a" x="525.0" y="405.0"></text></g><g id="cx-13-22"><rect shape-rendering="crispEdge"  x="660.0" y="390.0" width="30.0" height="30.0" /><text dy=".28em"  class="cx-a" x="675.0" y="405.0"></text></g><g id="cx-14-11"><rect shape-rendering="crispEdge"  x="330.0" y="420.0" width="30.0" height="30.0" /><text dy=".28em"  class="cx-a" x="345.0" y="435.0"></text></g><g id="cx-15-11"><rect shape-rendering="crispEdge"  x="330.0" y="450.0" width="30.0" height="30.0" /><text dy=".28em"  class="cx-a" x="345.0" y="465.0"></text></g><g id="cx-16-2"><rect shape-rendering="crispEdge"  x="60.0" y="480.0" width="30.0" height="30.0" /><text dy="1em"  class="cx-c" x="62.0" y="482.0" >11</text><text dy=".28em"  class="cx-a" x="75.0" y="495.0"></text></g><g id="cx-16-3"><rect shape-rendering="crispEdge"  x="90.0" y="480.0" width="30.0" height="30.0" /><text dy=".28em"  class="cx-a" x="105.0" y="495.0"></text></g><g id="cx-16-4"><rect shape-rendering="crispEdge"  x="120.0" y="480.0" width="30.0" height="30.0" /><text dy=".28em"  class="cx-a" x="135.0" y="495.0"></text></g><g id="cx-16-5"><rect shape-rendering="crispEdge"  x="150.0" y="480.0" width="30.0" height="30.0" /><text dy=".28em"  class="cx-a" x="165.0" y="495.0"></text></g><g id="cx-16-6"><rect shape-rendering="crispEdge"  x="180.0" y="480.0" width="30.0" height="30.0" /><text dy=".28em"  class="cx-a" x="195.0" y="495.0"></text></g><g id="cx-16-7"><rect shape-rendering="crispEdge"  x="210.0" y="480.0" width="30.0" height="30.0" /><text dy=".28em"  class="cx-a" x="225.0" y="495.0"></text></g><g id="cx-16-8"><rect shape-rendering="crispEdge"  x="240.0" y="480.0" width="30.0" height="30.0" /><text dy=".28em"  class="cx-a" x="255.0" y="495.0"></text></g><g id="cx-16-9"><rect shape-rendering="crispEdge"  x="270.0" y="480.0" width="30.0" height="30.0" /><text dy=".28em"  class="cx-a" x="285.0" y="495.0"></text></g><g id="cx-16-10"><rect shape-rendering="crispEdge"  x="300.0" y="480.0" width="30.0" height="30.0" /><text dy=".28em"  class="cx-a" x="315.0" y="495.0"></text></g><g id="cx-16-11"><rect shape-rendering="crispEdge"  x="330.0" y="480.0" width="30.0" height="30.0" /><text dy=".28em"  class="cx-a" x="345.0" y="495.0"></text></g><g id="cx-17-2"><rect shape-rendering="crispEdge"  x="60.0" y="510.0" width="30.0" height="30.0" /><text dy=".28em"  class="cx-a" x="75.0" y="525.0"></text></g><g id="cx-17-11"><rect shape-rendering="crispEdge"  x="330.0" y="510.0" width="30.0" height="30.0" /><text dy=".28em"  class="cx-a" x="345.0" y="525.0"></text></g><g id="cx-18-2"><rect shape-rendering="crispEdge"  x="60.0" y="540.0" width="30.0" height="30.0" /><text dy=".28em"  class="cx-a" x="75.0" y="555.0"></text></g><g id="cx-18-7"><rect shape-rendering="crispEdge"  x="210.0" y="540.0" width="30.0" height="30.0" /><text dy="1em"  class="cx-c" x="212.0" y="542.0" >12</text><text dy=".28em"  class="cx-a" x="225.0" y="555.0"></text></g><g id="cx-18-8"><rect shape-rendering="crispEdge"  x="240.0" y="540.0" width="30.0" height="30.0" /><text dy=".28em"  class="cx-a" x="255.0" y="555.0"></text></g><g id="cx-18-9"><rect shape-rendering="crispEdge"  x="270.0" y="540.0" width="30.0" height="30.0" /><text dy=".28em"  class="cx-a" x="285.0" y="555.0"></text></g><g id="cx-18-10"><rect shape-rendering="crispEdge"  x="300.0" y="540.0" width="30.0" height="30.0" /><text dy=".28em"  class="cx-a" x="315.0" y="555.0"></text></g><g id="cx-18-11"><rect shape-rendering="crispEdge"  x="330.0" y="540.0" width="30.0" height="30.0" /><text dy=".28em"  class="cx-a" x="345.0" y="555.0"></text></g><g id="cx-18-12"><rect shape-rendering="crispEdge"  x="360.0" y="540.0" width="30.0" height="30.0" /><text dy=".28em"  class="cx-a" x="375.0" y="555.0"></text></g><g id="cx-18-13"><rect shape-rendering="crispEdge"  x="390.0" y="540.0" width="30.0" height="30.0" /><text dy=".28em"  class="cx-a" x="405.0" y="555.0"></text></g><g id="cx-18-14"><rect shape-rendering="crispEdge"  x="420.0" y="540.0" width="30.0" height="30.0" /><text dy=".28em"  class="cx-a" x="435.0" y="555.0"></text></g><g id="cx-18-15"><rect shape-rendering="crispEdge"  x="450.0" y="540.0" width="30.0" height="30.0" /><text dy=".28em"  class="cx-a" x="465.0" y="555.0"></text></g><g id="cx-18-16"><rect shape-rendering="crispEdge"  x="480.0" y="540.0" width="30.0" height="30.0" /><text dy=".28em"  class="cx-a" x="495.0" y="555.0"></text></g><g id="cx-19-2"><rect shape-rendering="crispEdge"  x="60.0" y="570.0" width="30.0" height="30.0" /><text dy=".28em"  class="cx-a" x="75.0" y="585.0"></text></g><g id="cx-19-11"><rect shape-rendering="crispEdge"  x="330.0" y="570.0" width="30.0" height="30.0" /><text dy=".28em"  class="cx-a" x="345.0" y="585.0"></text></g><g id="cx-20-2"><rect shape-rendering="crispEdge"  x="60.0" y="600.0" width="30.0" height="30.0" /><text dy=".28em"  class="cx-a" x="75.0" y="615.0"></text></g><g id="cx-20-11"><rect shape-rendering="crispEdge"  x="330.0" y="600.0" width="30.0" height="30.0" /><text dy=".28em"  class="cx-a" x="345.0" y="615.0"></text></g><g id="cx-21-2"><rect shape-rendering="crispEdge"  x="60.0" y="630.0" width="30.0" height="30.0" /><text dy=".28em"  class="cx-a" x="75.0" y="645.0"></text></g><g id="cx-21-11"><rect shape-rendering="crispEdge"  x="330.0" y="630.0" width="30.0" height="30.0" /><text dy=".28em"  class="cx-a" x="345.0" y="645.0"></text></g><g id="cx-22-2"><rect shape-rendering="crispEdge"  x="60.0" y="660.0" width="30.0" height="30.0" /><text dy=".28em"  class="cx-a" x="75.0" y="675.0"></text></g><g id="cx-23-2"><rect shape-rendering="crispEdge"  x="60.0" y="690.0" width="30.0" height="30.0" /><text dy=".28em"  class="cx-a" x="75.0" y="705.0"></text></g><g id="cx-24-0"><rect shape-rendering="crispEdge"  x="0.0" y="720.0" width="30.0" height="30.0" /><text dy="1em"  class="cx-c" x="2.0" y="722.0" >13</text><text dy=".28em"  class="cx-a" x="15.0" y="735.0"></text></g><g id="cx-24-1"><rect shape-rendering="crispEdge"  x="30.0" y="720.0" width="30.0" height="30.0" /><text dy=".28em"  class="cx-a" x="45.0" y="735.0"></text></g><g id="cx-24-2"><rect shape-rendering="crispEdge"  x="60.0" y="720.0" width="30.0" height="30.0" /><text dy=".28em"  class="cx-a" x="75.0" y="735.0"></text></g><g id="cx-24-3"><rect shape-rendering="crispEdge"  x="90.0" y="720.0" width="30.0" height="30.0" /><text dy=".28em"  class="cx-a" x="105.0" y="735.0"></text></g><g id="cx-24-4"><rect shape-rendering="crispEdge"  x="120.0" y="720.0" width="30.0" height="30.0" /><text dy=".28em"  class="cx-a" x="135.0" y="735.0"></text></g><g id="cx-24-5"><rect shape-rendering="crispEdge"  x="150.0" y="720.0" width="30.0" height="30.0" /><text dy=".28em"  class="cx-a" x="165.0" y="735.0"></text></g></svg>